<?xml version="1.0" encoding="utf-8"?>
<!-- Generator: Adobe Illustrator 27.5.0, SVG Export Plug-In . SVG Version: 6.00 Build 0)  -->
<svg version="1.1" xmlns="http://www.w3.org/2000/svg" xmlns:xlink="http://www.w3.org/1999/xlink" x="0px" y="0px"
	 viewBox="0 0 750 500" style="enable-background:new 0 0 750 500;" xml:space="preserve">
<g id="Background_Complete">
	<g>
		<path style="fill:#F5F5F5;" d="M366.596,163.49c-0.796,0-1.598-0.13-2.37-0.398l-12.244-4.243
			c-2.444-0.847-4.266-2.951-4.755-5.492l-2.448-12.725c-0.488-2.54,0.423-5.17,2.378-6.864l9.797-8.483
			c1.955-1.694,4.688-2.219,7.133-1.372l12.244,4.243c2.444,0.847,4.267,2.951,4.755,5.492l2.448,12.725
			c0.488,2.54-0.423,5.169-2.378,6.863l-9.798,8.483C370.021,162.878,368.319,163.49,366.596,163.49z M355.003,151.43l11.44,3.964
			l9.154-7.926l-2.287-11.89l-11.441-3.965l-9.154,7.926L355.003,151.43z"/>
	</g>
	<g>
		<path style="fill:#F5F5F5;" d="M509.438,126.536c-0.796,0-1.597-0.13-2.369-0.398l-6.198-2.147
			c-2.445-0.848-4.267-2.953-4.755-5.493l-1.238-6.439c-0.489-2.539,0.421-5.168,2.377-6.863l4.961-4.295
			c1.956-1.694,4.689-2.219,7.133-1.371l6.196,2.148c2.445,0.847,4.268,2.952,4.756,5.493l1.238,6.439
			c0.487,2.541-0.423,5.169-2.376,6.863l-4.961,4.295C512.864,125.924,511.162,126.536,509.438,126.536z M503.892,116.571
			l5.395,1.869l4.316-3.737l-1.079-5.606l-5.395-1.87l-4.316,3.737L503.892,116.571z"/>
	</g>
	<g>
		<path style="fill:#E0E0E0;" d="M680.682,220.769c-1.582,0-3.107-0.717-4.112-1.97l-3.491-4.356
			c-1.172-1.462-1.479-3.456-0.799-5.203l2.027-5.202c0.679-1.746,2.253-3.008,4.105-3.293l5.52-0.846
			c1.847-0.285,3.73,0.448,4.904,1.91l3.491,4.356c1.173,1.462,1.479,3.456,0.799,5.203l-2.027,5.202
			c-0.68,1.746-2.253,3.008-4.106,3.292l-5.519,0.846C681.211,220.75,680.946,220.769,680.682,220.769z M684.728,203.839
			c-0.064,0-0.127,0.005-0.19,0.015l-5.52,0.846c-0.444,0.068-0.821,0.371-0.984,0.79l-2.027,5.202
			c-0.163,0.419-0.09,0.898,0.192,1.249l3.491,4.356c0.281,0.351,0.742,0.527,1.177,0.458l5.519-0.846
			c0.444-0.068,0.821-0.371,0.984-0.79l2.027-5.202c0.163-0.419,0.09-0.898-0.192-1.248v-0.001l-3.491-4.355
			C685.474,204.012,685.108,203.839,684.728,203.839z"/>
	</g>
	<g>
		<path style="fill:#E0E0E0;" d="M57.699,264.231c-2.033,0-3.993-0.922-5.285-2.534l-8.205-10.233
			c-1.506-1.88-1.899-4.442-1.025-6.686l4.761-12.224c0.875-2.245,2.896-3.865,5.277-4.23l12.966-1.989
			c2.385-0.365,4.796,0.576,6.303,2.456l8.205,10.234c1.507,1.879,1.9,4.441,1.026,6.685l-4.762,12.225
			c-0.874,2.245-2.896,3.866-5.278,4.232l-12.966,1.988C58.378,264.205,58.038,264.231,57.699,264.231z M49.757,247.191
			l8.035,10.022l12.697-1.946l4.662-11.97l-8.035-10.023l-12.696,1.947L49.757,247.191z M75.235,243.403L75.235,243.403
			L75.235,243.403z"/>
	</g>
	<g>
		<path style="fill:#EBEBEB;" d="M90.882,174.596h-7.732c-1.875,0-3.622-1.008-4.559-2.632l-3.866-6.697
			c-0.938-1.624-0.938-3.64,0-5.264l3.866-6.697c0.937-1.624,2.684-2.632,4.559-2.632h7.732c1.874,0,3.621,1.008,4.559,2.631
			l3.867,6.697c0.938,1.624,0.938,3.64,0,5.264l-3.867,6.697C94.503,173.588,92.756,174.596,90.882,174.596z M83.149,154.676
			c-0.45,0-0.87,0.242-1.095,0.632l-3.866,6.697c-0.225,0.39-0.225,0.874,0,1.264l3.866,6.697c0.225,0.39,0.645,0.632,1.095,0.632
			h7.732c0.45,0,0.87-0.242,1.095-0.632l3.866-6.697c0.225-0.39,0.225-0.874,0-1.264l-3.866-6.697
			c-0.225-0.39-0.645-0.632-1.095-0.632H83.149z"/>
	</g>
	<g>
		<g>
			<polygon style="fill:#EBEBEB;" points="222.779,98.952 207.703,89.464 189.19,58.223 163.44,42.456 158.455,47.854 
				161.074,51.369 169.198,62.272 201.473,105.592 214.634,112.833 			"/>
		</g>
		<g>
			<polygon style="fill:#EBEBEB;" points="203.834,121.413 199.515,107.026 152.091,52.849 145.768,56.59 155.78,85.076 
				183.31,112.116 189.48,129.004 			"/>
		</g>
		<g>
			<path style="fill:#E0E0E0;" d="M229.518,101.632c0,0,53.554,29.39,64.342,39.312c10.788,9.922,35.995,51.229,33.435,56.505
				c-2.56,5.276-4.518,5.955-10.329,0.88c-5.81-5.075-24.583-33.421-29.631-38.001c-5.048-4.58-67.775-41.381-67.775-41.381
				L229.518,101.632z"/>
		</g>
		<g>
			<g>
				<circle style="fill:#EBEBEB;" cx="193.215" cy="97.261" r="16.959"/>
			</g>
			<g>
				<g>
					<path style="fill:#E0E0E0;" d="M188.948,113.675c0.014-0.089,1.458,0.405,4.142,0.427c1.338,0.032,2.983-0.18,4.802-0.708
						c1.815-0.537,3.806-1.47,5.674-2.955c1.853-1.483,3.624-3.497,4.788-6.049c1.142-2.538,1.835-5.556,1.49-8.69
						c-0.126-1.565-0.521-3.145-1.143-4.664c-0.281-0.775-0.697-1.496-1.084-2.239c-0.461-0.7-0.902-1.424-1.464-2.071
						c-2.129-2.677-5.24-4.682-8.737-5.626c-3.515-0.88-7.209-0.644-10.373,0.657c-0.806,0.291-1.544,0.709-2.287,1.096
						c-0.7,0.46-1.415,0.888-2.038,1.428c-1.283,1.024-2.397,2.212-3.27,3.518c-1.828,2.569-2.692,5.543-2.93,8.317
						c-0.226,2.796,0.34,5.418,1.237,7.615c0.909,2.207,2.193,3.991,3.517,5.344c1.333,1.347,2.665,2.333,3.85,2.957
						C187.478,113.319,188.979,113.59,188.948,113.675c-0.002,0.009-0.093-0.011-0.269-0.057c-0.204-0.057-0.461-0.129-0.779-0.218
						c-0.345-0.09-0.766-0.221-1.242-0.434c-0.482-0.197-1.046-0.412-1.632-0.757c-1.213-0.604-2.584-1.579-3.96-2.93
						c-1.367-1.357-2.699-3.16-3.65-5.406c-0.939-2.236-1.54-4.918-1.328-7.788c0.224-2.846,1.097-5.906,2.965-8.559
						c0.893-1.347,2.035-2.575,3.353-3.633c0.64-0.557,1.374-1.001,2.095-1.476c0.765-0.401,1.525-0.833,2.354-1.135
						c3.258-1.347,7.071-1.596,10.694-0.688c3.605,0.971,6.813,3.046,9.002,5.808c0.577,0.667,1.031,1.414,1.503,2.137
						c0.398,0.766,0.823,1.51,1.111,2.309c0.635,1.566,1.035,3.194,1.159,4.805c0.34,3.227-0.387,6.323-1.577,8.918
						c-1.212,2.61-3.043,4.66-4.952,6.155c-1.924,1.499-3.966,2.425-5.82,2.945c-1.859,0.51-3.531,0.694-4.885,0.631
						c-0.679,0.016-1.276-0.071-1.794-0.134c-0.52-0.045-0.951-0.136-1.297-0.225c-0.322-0.077-0.58-0.139-0.787-0.189
						C189.035,113.711,188.946,113.683,188.948,113.675z"/>
				</g>
			</g>
		</g>
		<g>
			<g>
				<path style="fill:#E0E0E0;" d="M190.805,106.529c-5.119-1.331-8.189-6.559-6.859-11.677c1.331-5.119,6.559-8.189,11.677-6.859
					c5.119,1.33,8.19,6.559,6.859,11.677C201.152,104.788,195.924,107.859,190.805,106.529z"/>
			</g>
			<g>
				<g>
					<path style="fill:#E0E0E0;" d="M190.805,106.529c0.012-0.065,0.831,0.199,2.339,0.197c1.48-0.005,3.756-0.41,5.866-2.088
						c1.034-0.834,2.021-1.964,2.668-3.393c0.635-1.421,1.019-3.108,0.823-4.857c-0.072-0.874-0.294-1.756-0.642-2.603
						c-0.335-0.853-0.814-1.672-1.424-2.404c-1.189-1.493-2.925-2.61-4.876-3.137c-1.961-0.491-4.021-0.36-5.788,0.365
						c-0.89,0.341-1.707,0.824-2.415,1.406c-0.717,0.571-1.34,1.233-1.828,1.961c-1.023,1.433-1.51,3.093-1.647,4.643
						c-0.13,1.563,0.181,3.03,0.679,4.262c1.026,2.493,2.816,3.954,4.107,4.679C189.984,106.298,190.827,106.466,190.805,106.529
						c0,0-0.86-0.093-2.236-0.789c-1.347-0.685-3.237-2.143-4.349-4.715c-0.539-1.271-0.887-2.798-0.77-4.435
						c0.124-1.623,0.618-3.369,1.682-4.885c0.509-0.769,1.16-1.471,1.911-2.076c0.743-0.616,1.602-1.129,2.539-1.493
						c1.86-0.77,4.039-0.914,6.108-0.395c2.059,0.554,3.892,1.741,5.14,3.319c0.641,0.774,1.141,1.64,1.49,2.54
						c0.362,0.895,0.589,1.824,0.658,2.744c0.191,1.842-0.227,3.608-0.909,5.085c-0.695,1.486-1.742,2.651-2.832,3.499
						c-2.223,1.705-4.584,2.058-6.095,2C191.602,106.866,190.805,106.529,190.805,106.529z"/>
				</g>
			</g>
		</g>
		<g>
			<g>
				<path style="fill:#EBEBEB;" d="M212.144,110.447l6.928-12.056c2.031-3.535,6.544-4.754,10.079-2.723l0.648,0.373
					c3.535,2.031,4.754,6.544,2.723,10.079l-6.927,12.056c-2.031,3.535-6.544,4.754-10.079,2.723l-0.648-0.373
					C211.332,118.494,210.113,113.982,212.144,110.447z"/>
			</g>
			<g>
				<g>
					<path style="fill:#E0E0E0;" d="M212.144,110.446c0.075,0.026-0.598,0.925-0.83,2.816c-0.098,0.937-0.016,2.116,0.445,3.371
						c0.247,0.619,0.582,1.252,1.036,1.855c0.468,0.592,1.049,1.147,1.745,1.608c0.709,0.442,1.486,0.919,2.341,1.198
						c0.862,0.288,1.814,0.421,2.79,0.352c1.947-0.128,3.981-1.146,5.278-2.924c2.297-3.836,4.732-8.224,7.346-12.731
						c1.264-2.195,1.234-4.973,0.034-7.036c-0.569-1.047-1.413-1.905-2.377-2.52c-0.991-0.631-1.988-1.172-3.076-1.365
						c-2.155-0.439-4.351,0.17-5.868,1.398c-1.567,1.197-2.264,3.024-3.184,4.462c-1.715,2.915-3.113,5.291-4.112,6.99
						c-0.475,0.786-0.854,1.413-1.141,1.887C212.307,110.235,212.16,110.455,212.144,110.446c-0.016-0.009,0.101-0.247,0.337-0.693
						c0.265-0.486,0.617-1.13,1.056-1.936c0.964-1.719,2.313-4.122,3.968-7.072c0.423-0.746,0.864-1.526,1.324-2.338
						c0.468-0.828,1.1-1.631,1.91-2.278c1.597-1.317,3.927-1.986,6.232-1.531c1.159,0.198,2.247,0.782,3.248,1.416
						c1.033,0.653,1.941,1.571,2.555,2.69c1.292,2.206,1.331,5.191-0.027,7.545c-2.627,4.528-5.033,8.844-7.411,12.756
						c-1.396,1.891-3.572,2.956-5.636,3.072c-1.035,0.063-2.042-0.089-2.949-0.403c-0.922-0.318-1.684-0.802-2.416-1.273
						c-0.725-0.494-1.326-1.086-1.804-1.713c-0.465-0.639-0.802-1.306-1.045-1.955c-0.453-1.315-0.504-2.536-0.373-3.495
						c0.13-0.966,0.435-1.665,0.635-2.128C211.992,110.664,212.129,110.438,212.144,110.446z"/>
				</g>
			</g>
		</g>
		<g>
			<path style="fill:#E0E0E0;" d="M191.471,137.538c0,0,20.29,57.62,28.325,69.879c8.036,12.258,44.694,43.847,50.316,42.179
				c5.622-1.667,6.61-3.49,2.548-10.048c-4.063-6.558-28.979-29.691-32.677-35.416c-3.698-5.725-29.809-73.602-29.809-73.602
				L191.471,137.538z"/>
		</g>
		<g>
			<g>
				<path style="fill:#EBEBEB;" d="M202.993,121.829l-13.022,4.875c-3.818,1.429-5.755,5.684-4.326,9.502l0.262,0.7
					c1.429,3.818,5.684,5.755,9.502,4.326l13.022-4.875c3.819-1.43,5.755-5.684,4.326-9.502l-0.262-0.7
					C211.066,122.337,206.811,120.4,202.993,121.829z"/>
			</g>
			<g>
				<g>
					<path style="fill:#E0E0E0;" d="M202.993,121.829c-0.006-0.016,0.24-0.115,0.72-0.282c0.49-0.123,1.228-0.31,2.203-0.281
						c0.968,0.026,2.165,0.276,3.388,0.936c0.6,0.346,1.204,0.787,1.759,1.349c0.541,0.574,1.027,1.264,1.397,2.059
						c0.345,0.799,0.699,1.63,0.863,2.591c0.163,0.946,0.149,1.964-0.082,2.975c-0.45,2.018-1.854,3.992-3.947,5.062
						c-4.246,1.71-8.896,3.382-13.791,5.238c-2.544,0.958-5.483,0.434-7.449-1.2c-1.005-0.787-1.763-1.832-2.239-2.958
						c-0.463-1.091-0.862-2.259-0.869-3.435c-0.075-2.348,0.964-4.538,2.523-5.9c0.77-0.694,1.665-1.187,2.558-1.514
						c0.876-0.322,1.718-0.631,2.522-0.926c3.18-1.153,5.771-2.093,7.623-2.765c0.867-0.303,1.559-0.545,2.082-0.727
						C202.732,121.889,202.987,121.813,202.993,121.829c0.006,0.017-0.235,0.126-0.701,0.319c-0.514,0.206-1.195,0.478-2.048,0.819
						c-1.838,0.71-4.41,1.702-7.565,2.921c-1.568,0.674-3.484,1.064-4.92,2.416c-1.458,1.297-2.417,3.365-2.333,5.563
						c0.014,1.104,0.385,2.176,0.847,3.256c0.45,1.051,1.16,2.023,2.1,2.755c1.84,1.52,4.577,2.002,6.948,1.111
						c4.873-1.847,9.598-3.535,13.757-5.178c1.965-0.991,3.301-2.832,3.744-4.732c0.227-0.951,0.25-1.913,0.106-2.81
						c-0.137-0.889-0.48-1.734-0.801-2.505c-0.342-0.762-0.795-1.426-1.302-1.983c-0.521-0.546-1.092-0.979-1.662-1.324
						c-1.163-0.658-2.313-0.931-3.254-0.987C204.003,121.39,203.007,121.908,202.993,121.829z"/>
				</g>
			</g>
		</g>
	</g>
</g>
<g id="Background_Simple" style="display:none;">
	<g style="display:inline;">
		<path style="fill:#F5F5F5;" d="M38.892,169.281l0.969,1.915c8.169,16.142,24.371,26.743,42.296,26.99
			c2.304,0.032,4.611-0.103,6.901-0.411c16.486-2.221,31.544-13.398,38.605-28.654c4.153-8.973,5.934-19.535,13.028-26.364
			c9.232-8.888,23.68-8.075,36.331-6.702c12.652,1.373,27.112,2.149,36.305-6.78c5.758-5.592,8.099-13.995,8.291-22.063
			c0.51-21.361-12.848-41.527-30.971-52.435c-18.124-10.909-40.255-13.467-61.209-10.899c-29.354,3.598-58.076,17.48-76.503,40.92
			C34.507,108.239,27.729,141.587,38.892,169.281z"/>
	</g>
	<g style="display:inline;">
		<path style="fill:#F5F5F5;" d="M535.981,72.007l-1.126,1.827c-9.497,15.399-10.071,34.752-0.917,50.166
			c1.177,1.981,2.497,3.878,3.956,5.67c10.507,12.897,27.904,19.897,44.601,17.947c9.82-1.147,19.757-5.146,29.286-2.665
			c12.402,3.229,19.257,15.972,24.696,27.478c5.439,11.505,12.332,24.24,24.748,27.415c7.776,1.988,16.164-0.406,23.144-4.457
			c18.481-10.725,28.697-32.65,28.53-53.803c-0.167-21.153-9.548-41.36-22.685-57.885c-18.403-23.15-45.245-40.388-74.86-43.855
			C585.74,36.377,553.763,48.02,535.981,72.007z"/>
	</g>
	<g style="display:inline;">
		
			<ellipse transform="matrix(0.247 -0.969 0.969 0.247 123.8667 346.1831)" style="fill:#F5F5F5;" cx="284.674" cy="93.394" rx="33.677" ry="33.677"/>
	</g>
</g>
<g id="Floor">
	<g>
		<g>
			<path style="fill:#263238;" d="M714.755,453.47c0,0.144-152.437,0.26-340.435,0.26c-188.063,0-340.467-0.117-340.467-0.26
				s152.405-0.26,340.467-0.26C562.318,453.21,714.755,453.326,714.755,453.47z"/>
		</g>
	</g>
</g>
<g id="Screwdriver">
	<g>
		<g>
			<g>
				<path style="fill:#E0E0E0;" d="M87.015,339.067c0.277-0.838,31.435-102.695,31.435-102.695l-0.78-12.649l8.149-13.418
					l10.122,3.343l-1.385,15.042l-7.194,10.936L95.976,341.962L87.015,339.067z"/>
			</g>
			<g>
				<g>
					<path style="fill:#263238;" d="M87.015,339.067c0,0,0.21,0.056,0.601,0.176c0.404,0.125,0.978,0.303,1.731,0.537
						c1.525,0.48,3.757,1.183,6.657,2.095l-0.116,0.06c5.069-16.618,16.794-55.055,31.231-102.384l0.011-0.035l0.02-0.031
						c2.278-3.465,4.717-7.176,7.191-10.938l-0.041,0.118c0.441-4.798,0.909-9.888,1.383-15.042l0.178,0.271
						c-0.264-0.087-0.55-0.182-0.837-0.276c-3.122-1.031-6.219-2.054-9.285-3.067l0.303-0.112c-2.77,4.559-5.493,9.041-8.152,13.416
						l0.037-0.149c0.264,4.313,0.523,8.534,0.774,12.649l0.003,0.046l-0.013,0.043c-9.107,29.591-16.994,55.22-22.61,73.468
						c-2.824,9.124-5.076,16.399-6.628,21.411c-0.778,2.494-1.38,4.421-1.792,5.743c-0.205,0.645-0.361,1.139-0.472,1.488
						C87.081,338.891,87.015,339.067,87.015,339.067s0.039-0.163,0.134-0.492c0.102-0.345,0.245-0.833,0.433-1.469
						c0.395-1.315,0.97-3.232,1.714-5.712c1.516-5.009,3.717-12.28,6.476-21.399c5.573-18.304,13.4-44.013,22.437-73.696
						l-0.01,0.089c-0.255-4.115-0.517-8.336-0.785-12.649l-0.005-0.08l0.042-0.069c2.657-4.377,5.378-8.86,8.146-13.42l0.107-0.177
						l0.196,0.065c3.066,1.012,6.164,2.035,9.285,3.066c0.286,0.095,0.573,0.189,0.837,0.276l0.197,0.065l-0.019,0.206
						c-0.475,5.154-0.944,10.243-1.387,15.041l-0.006,0.065l-0.036,0.054c-2.476,3.761-4.917,7.47-7.197,10.934l0.031-0.065
						c-14.581,47.285-26.423,85.686-31.543,102.289l-0.028,0.09l-0.088-0.029c-2.907-0.963-5.145-1.705-6.674-2.212
						c-0.738-0.248-1.302-0.438-1.698-0.571C87.197,339.138,87.015,339.067,87.015,339.067z"/>
				</g>
			</g>
		</g>
		<g>
			<path style="fill:#FF725E;" d="M79.494,344.018L65.5,362.942l-19.57,70.987c0,0-2.814,14.479,13.181,18.593
				c17.96,4.619,22.103-9.138,22.103-9.138l19.028-69.33l-0.285-24.06l4.697-5.289c0.945-1.064,0.492-2.748-0.859-3.195
				l-22.47-7.421c-1.358-0.448-2.729,0.647-2.591,2.071L79.494,344.018z"/>
		</g>
		<g>
			<g>
				<path style="fill:#263238;" d="M100.116,350.831c-0.043,0.137-4.753-1.235-10.518-3.065c-5.767-1.83-10.406-3.424-10.362-3.562
					c0.043-0.137,4.752,1.235,10.52,3.065C95.52,349.099,100.16,350.694,100.116,350.831z"/>
			</g>
		</g>
		<g>
			<g>
				<path style="fill:#263238;" d="M100.242,374.054c-0.009,0.035-0.507-0.055-1.402-0.247c-0.896-0.19-2.184-0.495-3.771-0.894
					c-3.174-0.797-7.534-2.005-12.293-3.523c-4.759-1.521-9.013-3.064-12.061-4.254c-1.525-0.594-2.751-1.093-3.591-1.457
					c-0.841-0.362-1.299-0.578-1.286-0.611c0.013-0.033,0.497,0.119,1.36,0.422c0.954,0.34,2.179,0.777,3.647,1.301
					c3.078,1.1,7.341,2.584,12.091,4.103c4.749,1.515,9.084,2.776,12.229,3.663c1.5,0.424,2.751,0.778,3.726,1.053
					C99.769,373.862,100.251,374.019,100.242,374.054z"/>
			</g>
		</g>
		<g style="opacity:0.3;">
			<path d="M52.972,435.942l-0.48-0.142c-1.749-0.518-2.747-2.356-2.229-4.105l17.569-59.339c0.518-1.749,2.356-2.747,4.105-2.229
				l0.48,0.142c1.749,0.518,2.747,2.356,2.229,4.105l-17.569,59.339C56.559,435.462,54.721,436.46,52.972,435.942z"/>
		</g>
		<g style="opacity:0.3;">
			<path d="M62.947,439.227l-0.48-0.142c-1.749-0.518-2.747-2.356-2.229-4.105l17.569-59.339c0.518-1.749,2.356-2.747,4.105-2.229
				l0.48,0.142c1.749,0.518,2.747,2.356,2.229,4.105l-17.569,59.339C66.535,438.746,64.697,439.745,62.947,439.227z"/>
		</g>
		<g style="opacity:0.3;">
			<path d="M73.536,442.362l-0.48-0.142c-1.749-0.518-2.747-2.356-2.229-4.105l17.569-59.339c0.518-1.749,2.356-2.747,4.105-2.23
				l0.48,0.142c1.749,0.518,2.747,2.356,2.229,4.105l-17.569,59.339C77.124,441.882,75.286,442.88,73.536,442.362z"/>
		</g>
		<g>
			<g>
				<path style="fill:#263238;" d="M127.266,239.596c-0.047,0.136-2.041-0.43-4.454-1.265c-2.413-0.835-4.331-1.621-4.284-1.757
					c0.047-0.136,2.041,0.43,4.454,1.265C125.395,238.674,127.313,239.46,127.266,239.596z"/>
			</g>
		</g>
		<g>
			<g>
				<path style="fill:#263238;" d="M135.942,213.647c0.03,0.01-0.096,0.504-0.352,1.403c-0.289,0.971-0.67,2.256-1.136,3.824
					c-1.031,3.319-2.431,7.826-4.025,12.958l-0.078,0.25l-0.249-0.087c-1.487-0.518-3.027-1.055-4.606-1.605
					c-1.63-0.572-3.22-1.13-4.745-1.665l-0.226-0.079l0.064-0.229c1.447-5.14,2.715-9.647,3.649-12.965
					c0.459-1.556,0.835-2.829,1.119-3.793c0.271-0.885,0.434-1.364,0.464-1.355c0.03,0.008-0.074,0.503-0.292,1.402
					c-0.247,0.974-0.574,2.261-0.973,3.833c-0.889,3.33-2.098,7.854-3.476,13.013l-0.161-0.308c1.527,0.532,3.118,1.086,4.749,1.654
					c1.578,0.554,3.117,1.094,4.603,1.615l-0.327,0.163c1.662-5.111,3.122-9.599,4.196-12.904c0.525-1.549,0.955-2.819,1.281-3.778
					C135.729,214.114,135.912,213.638,135.942,213.647z"/>
			</g>
		</g>
	</g>
</g>
<g id="Gears">
	<g>
		<g>
			<g>
				<g>
					<path style="fill:#E0E0E0;" d="M430.898,111.922c-0.797,0-1.598-0.13-2.37-0.398l-12.244-4.243
						c-2.443-0.847-4.266-2.95-4.755-5.49l-2.447-12.727c-0.49-2.54,0.422-5.17,2.379-6.864l9.796-8.482
						c1.955-1.692,4.69-2.218,7.132-1.372l12.244,4.243c2.445,0.847,4.268,2.952,4.756,5.493l2.447,12.723
						c0.488,2.543-0.424,5.172-2.38,6.864l-9.795,8.481C434.324,111.309,432.621,111.922,430.898,111.922z M419.304,99.86
						l11.441,3.964l9.153-7.926l-2.287-11.89l-11.441-3.965l-9.153,7.926L419.304,99.86z"/>
				</g>
				<g>
					<g>
						<path style="fill:none;" d="M430.898,111.922c-0.797,0-1.598-0.13-2.37-0.398l-12.244-4.243
							c-2.443-0.847-4.266-2.95-4.755-5.49l-2.447-12.727c-0.49-2.54,0.422-5.17,2.379-6.864l9.796-8.482
							c1.955-1.692,4.69-2.218,7.132-1.372l12.244,4.243c2.445,0.847,4.268,2.952,4.756,5.493l2.447,12.723
							c0.488,2.543-0.424,5.172-2.38,6.864l-9.795,8.481C434.324,111.309,432.621,111.922,430.898,111.922z M419.304,99.86
							l11.441,3.964l9.153-7.926l-2.287-11.89l-11.441-3.965l-9.153,7.926L419.304,99.86z"/>
					</g>
					<g>
						<g>
							<path style="fill:#263238;" d="M419.304,99.86c-0.014,0.013-0.083-0.26-0.203-0.791c-0.126-0.587-0.293-1.368-0.502-2.345
								c-0.431-2.118-1.033-5.083-1.772-8.717c-0.014-0.069,0.014-0.14,0.063-0.183c2.602-2.272,5.704-4.982,9.119-7.965
								c0.068-0.06,0.161-0.074,0.241-0.046c3.542,1.222,7.411,2.558,11.444,3.95c-0.151-0.175,0.21,0.24,0.173,0.199l0.001,0.003
								l0.001,0.006l0.002,0.012l0.005,0.025l0.009,0.049l0.019,0.098l0.038,0.196l0.075,0.39l0.149,0.777
								c0.099,0.517,0.198,1.031,0.296,1.542c0.195,1.021,0.389,2.03,0.579,3.025c0.379,1.988,0.746,3.916,1.099,5.769
								c0.017,0.089-0.017,0.177-0.08,0.232c-3.441,2.954-6.55,5.622-9.187,7.886c-0.053,0.047-0.128,0.058-0.19,0.037
								c-3.491-1.251-6.34-2.272-8.375-3.001c-0.937-0.347-1.686-0.624-2.249-0.833C419.549,99.98,419.29,99.873,419.304,99.86
								c0.015-0.012,0.303,0.07,0.836,0.238c0.578,0.187,1.346,0.436,2.309,0.747c2.031,0.68,4.874,1.631,8.359,2.797l-0.19,0.036
								c2.618-2.286,5.704-4.982,9.119-7.965l-0.08,0.232c-0.36-1.852-0.734-3.779-1.12-5.765c-0.192-0.994-0.387-2.002-0.585-3.023
								c-0.098-0.511-0.198-1.024-0.297-1.541l-0.15-0.777l-0.075-0.39l-0.038-0.195l-0.019-0.098l-0.009-0.049l-0.005-0.024
								l-0.002-0.012l-0.001-0.006l-0.001-0.003c-0.037-0.044,0.322,0.371,0.168,0.195c-4.03-1.402-7.896-2.747-11.435-3.978
								l0.241-0.046c-3.44,2.953-6.566,5.636-9.187,7.886l0.063-0.183c0.656,3.616,1.191,6.566,1.573,8.673
								c0.17,0.997,0.306,1.793,0.409,2.392C419.278,99.551,419.319,99.848,419.304,99.86z"/>
						</g>
					</g>
					<g>
						<g>
							<path style="fill:#263238;" d="M430.898,111.922c-0.001-0.027,0.435-0.01,1.238-0.16c0.792-0.155,1.985-0.511,3.198-1.473
								c2.374-2.079,5.764-5.048,9.941-8.707c1.039-0.883,1.85-2.125,2.239-3.556c0.188-0.716,0.271-1.475,0.23-2.243
								c-0.046-0.76-0.249-1.547-0.395-2.355c-0.628-3.223-1.298-6.664-2.003-10.285c-0.176-0.916-0.32-1.809-0.726-2.634
								c-0.384-0.828-0.939-1.588-1.626-2.219c-0.686-0.632-1.509-1.127-2.405-1.446c-0.931-0.322-1.87-0.647-2.819-0.975
								c-1.897-0.656-3.828-1.324-5.788-2.002c-0.98-0.339-1.967-0.681-2.96-1.025c-0.997-0.378-1.959-0.638-3.003-0.632
								c-1.026,0.006-2.047,0.226-2.966,0.656c-0.938,0.411-1.686,1.086-2.474,1.78c-1.569,1.357-3.114,2.693-4.633,4.007
								c-1.516,1.313-3.006,2.603-4.464,3.866c-1.386,1.255-2.193,3.046-2.28,4.827c-0.067,0.896,0.124,1.757,0.296,2.65
								c0.168,0.883,0.333,1.754,0.497,2.613c0.326,1.717,0.642,3.385,0.948,4.997c0.313,1.604,0.583,3.188,0.899,4.647
								c0.386,1.431,1.201,2.675,2.238,3.554c0.516,0.443,1.083,0.801,1.672,1.07c0.585,0.262,1.214,0.454,1.802,0.669
								c1.184,0.418,2.302,0.812,3.349,1.182c2.08,0.739,3.877,1.377,5.359,1.904c1.477,0.506,2.593,0.994,3.397,1.131
								C430.463,111.912,430.899,111.896,430.898,111.922c0,0-0.435,0.063-1.256-0.056c-0.83-0.107-1.963-0.568-3.446-1.043
								c-1.49-0.503-3.297-1.114-5.388-1.82c-1.051-0.358-2.173-0.739-3.362-1.144c-0.594-0.211-1.208-0.389-1.838-0.662
								c-0.621-0.277-1.22-0.648-1.766-1.109c-1.098-0.915-1.969-2.219-2.387-3.73c-0.34-1.515-0.61-3.056-0.935-4.671
								c-0.314-1.611-0.639-3.277-0.973-4.992c-0.167-0.858-0.336-1.729-0.508-2.611c-0.171-0.867-0.383-1.806-0.314-2.763
								c0.086-1.903,0.942-3.821,2.424-5.17c1.459-1.269,2.949-2.565,4.466-3.884c1.517-1.316,3.061-2.654,4.628-4.013
								c0.398-0.339,0.769-0.681,1.202-1.021c0.432-0.326,0.899-0.608,1.392-0.839c0.987-0.462,2.083-0.699,3.185-0.705
								c1.097-0.015,2.209,0.293,3.173,0.662c0.993,0.344,1.98,0.687,2.959,1.027c1.959,0.68,3.889,1.35,5.785,2.009
								c0.948,0.33,1.889,0.658,2.82,0.982c0.96,0.344,1.841,0.877,2.574,1.556c0.734,0.677,1.325,1.492,1.733,2.379
								c0.432,0.883,0.586,1.858,0.754,2.749c0.688,3.623,1.343,7.068,1.956,10.294c0.139,0.805,0.341,1.59,0.388,2.414
								c0.038,0.814-0.055,1.617-0.259,2.372c-0.42,1.509-1.291,2.815-2.386,3.729c-4.226,3.609-7.655,6.537-10.057,8.588
								c-1.268,0.964-2.496,1.293-3.305,1.417C431.333,111.984,430.898,111.922,430.898,111.922z"/>
						</g>
					</g>
				</g>
			</g>
		</g>
		<g>
			<g>
				<g>
					<path style="fill:#E0E0E0;" d="M345.666,91.104c-1.583,0-3.108-0.717-4.113-1.971l-3.492-4.355
						c-1.173-1.463-1.478-3.457-0.798-5.204l2.026-5.202c0.681-1.747,2.255-3.008,4.107-3.292l5.518-0.846
						c1.854-0.282,3.732,0.448,4.905,1.91l3.491,4.356c1.172,1.462,1.479,3.456,0.799,5.203l-2.027,5.203
						c-0.68,1.747-2.253,3.008-4.107,3.293l-5.518,0.846C346.194,91.084,345.929,91.104,345.666,91.104z M349.711,74.173
						c-0.063,0-0.126,0.005-0.19,0.015l-5.517,0.846c-0.445,0.068-0.823,0.371-0.987,0.791l-2.025,5.201
						c-0.164,0.42-0.09,0.899,0.191,1.25l3.492,4.355c0.282,0.352,0.733,0.527,1.178,0.459l5.518-0.846
						c0.445-0.068,0.823-0.371,0.986-0.79l2.027-5.202c0.163-0.419,0.089-0.898-0.192-1.249l-3.491-4.355
						C350.457,74.345,350.091,74.173,349.711,74.173z"/>
				</g>
				<g>
					<g>
						<path style="fill:none;" d="M345.666,91.104c-1.583,0-3.108-0.717-4.113-1.971l-3.492-4.355
							c-1.173-1.463-1.478-3.457-0.798-5.204l2.026-5.202c0.681-1.747,2.255-3.008,4.107-3.292l5.518-0.846
							c1.854-0.282,3.732,0.448,4.905,1.91l3.491,4.356c1.172,1.462,1.479,3.456,0.799,5.203l-2.027,5.203
							c-0.68,1.747-2.253,3.008-4.107,3.293l-5.518,0.846C346.194,91.084,345.929,91.104,345.666,91.104z M349.711,74.173
							c-0.063,0-0.126,0.005-0.19,0.015l-5.517,0.846c-0.445,0.068-0.823,0.371-0.987,0.791l-2.025,5.201
							c-0.164,0.42-0.09,0.899,0.191,1.25l3.492,4.355c0.282,0.352,0.733,0.527,1.178,0.459l5.518-0.846
							c0.445-0.068,0.823-0.371,0.986-0.79l2.027-5.202c0.163-0.419,0.089-0.898-0.192-1.249l-3.491-4.355
							C350.457,74.345,350.091,74.173,349.711,74.173z"/>
					</g>
					<g>
						<g>
							<path style="fill:#263238;" d="M349.711,74.173c-0.002-0.012,0.15-0.053,0.43,0.02c0.138,0.04,0.307,0.112,0.471,0.25
								c0.168,0.145,0.3,0.33,0.475,0.527c0.729,0.876,1.686,2.025,2.841,3.412c0.151,0.185,0.304,0.374,0.461,0.566
								c0.167,0.229,0.266,0.513,0.277,0.809c0.021,0.299-0.104,0.605-0.194,0.834c-0.095,0.249-0.191,0.502-0.288,0.759
								c-0.395,1.035-0.815,2.134-1.255,3.287c-0.111,0.289-0.224,0.582-0.337,0.878c-0.125,0.347-0.398,0.663-0.745,0.833
								c-0.377,0.18-0.711,0.166-1.029,0.234c-0.327,0.051-0.657,0.103-0.99,0.155c-1.35,0.202-2.671,0.433-4.166,0.626
								c-0.432,0.001-0.857-0.188-1.139-0.509c-0.224-0.279-0.447-0.556-0.668-0.831c-0.435-0.544-0.863-1.08-1.284-1.607
								c-0.42-0.527-0.832-1.045-1.237-1.553l-0.301-0.379c-0.107-0.125-0.221-0.306-0.281-0.479
								c-0.131-0.354-0.115-0.759,0.024-1.091c0.456-1.148,0.89-2.241,1.299-3.271c0.204-0.51,0.402-1.004,0.593-1.481
								c0.102-0.228,0.163-0.478,0.338-0.722c0.165-0.23,0.395-0.401,0.644-0.499c1.923-0.352,3.378-0.488,4.434-0.637
								C349.123,74.176,349.708,74.122,349.711,74.173c-0.002,0.021-0.139,0.037-0.41,0.101c-0.332,0.065-0.722,0.141-1.186,0.231
								c-1.009,0.2-2.576,0.425-4.326,0.777c-0.184,0.078-0.351,0.209-0.469,0.381c-0.114,0.158-0.179,0.404-0.277,0.645
								c-0.182,0.48-0.37,0.978-0.565,1.492c-0.395,1.035-0.814,2.134-1.255,3.288c-0.097,0.242-0.101,0.506-0.011,0.748
								c0.073,0.226,0.311,0.45,0.511,0.715c0.408,0.505,0.824,1.021,1.247,1.545c0.423,0.526,0.853,1.06,1.29,1.603
								c0.216,0.268,0.433,0.537,0.652,0.808c0.185,0.211,0.467,0.335,0.751,0.335c1.4-0.209,2.767-0.413,4.089-0.61
								c0.333-0.05,0.664-0.1,0.991-0.149c0.328-0.061,0.674-0.068,0.884-0.181c0.236-0.116,0.417-0.316,0.51-0.565
								c0.117-0.295,0.232-0.587,0.346-0.875c0.456-1.147,0.891-2.241,1.3-3.27c0.102-0.255,0.203-0.507,0.302-0.754
								c0.108-0.262,0.19-0.451,0.182-0.672c-0.004-0.215-0.071-0.426-0.19-0.597c-0.148-0.19-0.293-0.377-0.434-0.559
								c-1.103-1.43-2.016-2.614-2.712-3.516C350.39,74.142,349.685,74.22,349.711,74.173z"/>
						</g>
					</g>
					<g>
						<g>
							<path style="fill:#263238;" d="M345.666,91.104c0-0.018,0.232-0.053,0.667-0.103c0.489-0.085,1.122-0.196,1.909-0.333
								c0.851-0.143,1.863-0.313,3.026-0.509c0.595-0.101,1.216-0.173,1.82-0.441c0.608-0.248,1.197-0.64,1.705-1.16
								c0.508-0.525,0.918-1.17,1.183-1.934c0.294-0.769,0.6-1.567,0.916-2.392c0.544-1.673,1.663-3.381,1.258-5.294
								c-0.165-0.946-0.601-1.824-1.284-2.596c-0.654-0.812-1.32-1.641-1.999-2.484c-0.339-0.422-0.682-0.848-1.027-1.277
								c-0.341-0.441-0.684-0.815-1.117-1.138c-0.849-0.639-1.923-1.008-3.015-1.006c-0.538-0.01-1.092,0.116-1.66,0.193
								c-0.561,0.086-1.118,0.171-1.671,0.255c-1.1,0.171-2.184,0.339-3.249,0.505c-1.006,0.222-1.925,0.75-2.6,1.478
								c-0.339,0.363-0.621,0.771-0.837,1.206c-0.207,0.427-0.378,0.923-0.564,1.379c-0.365,0.926-0.72,1.829-1.066,2.707
								c-0.325,0.888-0.751,1.713-0.876,2.544c-0.286,1.706,0.368,3.295,1.365,4.389c0.925,1.177,1.766,2.246,2.512,3.194
								c0.377,0.467,0.691,0.928,1.051,1.27c0.358,0.349,0.732,0.621,1.092,0.822C344.678,91.17,345.687,91.028,345.666,91.104
								c0,0.009-0.058,0.016-0.173,0.022c-0.114,0.007-0.285,0.004-0.508-0.015c-0.443-0.042-1.111-0.159-1.877-0.554
								c-0.382-0.195-0.781-0.466-1.167-0.821c-0.395-0.355-0.722-0.814-1.107-1.267c-0.763-0.934-1.624-1.987-2.572-3.146
								c-1.037-1.094-1.806-2.845-1.505-4.686c0.136-0.932,0.564-1.762,0.876-2.644c0.339-0.881,0.688-1.786,1.046-2.715
								c0.188-0.467,0.339-0.928,0.572-1.421c0.234-0.479,0.542-0.929,0.913-1.33c0.739-0.803,1.746-1.389,2.855-1.637
								c1.098-0.194,2.168-0.342,3.28-0.519c0.553-0.085,1.11-0.171,1.671-0.257c0.554-0.075,1.124-0.208,1.739-0.2
								c1.207-0.002,2.39,0.405,3.326,1.112c0.467,0.345,0.878,0.8,1.208,1.231c0.344,0.43,0.685,0.857,1.023,1.28
								c0.675,0.846,1.339,1.678,1.989,2.492c0.698,0.79,1.206,1.803,1.369,2.825c0.179,1.025,0.048,2.073-0.32,2.98
								c-0.346,0.876-0.683,1.728-1.008,2.552c-0.326,0.822-0.641,1.616-0.944,2.381c-0.284,0.788-0.745,1.5-1.295,2.046
								c-1.099,1.129-2.57,1.536-3.743,1.63c-1.169,0.162-2.185,0.303-3.039,0.421c-0.836,0.108-1.481,0.204-1.926,0.237
								C345.898,91.122,345.666,91.122,345.666,91.104z"/>
						</g>
					</g>
				</g>
			</g>
		</g>
		<g>
			<g>
				<path style="fill:#263238;" d="M443.088,78.049c0.103,0.09-1.011,1.592-2.575,3.296c-1.566,1.707-3.056,2.868-3.148,2.76
					c-0.096-0.11,1.216-1.425,2.766-3.114C441.681,79.303,442.974,77.95,443.088,78.049z"/>
			</g>
		</g>
		<g>
			<g>
				<path style="fill:#263238;" d="M424.336,72.299c0.132-0.046,0.821,1.623,1.338,3.782c0.522,2.159,0.668,3.958,0.529,3.977
					c-0.146,0.022-0.52-1.723-1.036-3.855C424.657,74.07,424.196,72.346,424.336,72.299z"/>
			</g>
		</g>
		<g>
			<g>
				<path style="fill:#263238;" d="M416.882,87.77c-0.058,0.137-1.744-0.456-3.844-1.102c-2.099-0.653-3.825-1.117-3.795-1.262
					c0.026-0.137,1.822,0.103,3.949,0.765C415.32,86.826,416.937,87.642,416.882,87.77z"/>
			</g>
		</g>
		<g>
			<g>
				<path style="fill:#263238;" d="M414.746,105.117c-0.11-0.092,0.805-1.37,2.045-2.854c1.24-1.484,2.334-2.612,2.445-2.52
					c0.11,0.092-0.805,1.37-2.045,2.854C415.951,104.081,414.856,105.21,414.746,105.117z"/>
			</g>
		</g>
		<g>
			<g>
				<path style="fill:#263238;" d="M431.59,110.595c-0.142,0.022-0.457-1.422-0.704-3.225c-0.247-1.804-0.331-3.279-0.188-3.296
					c0.143-0.017,0.458,1.427,0.704,3.225C431.648,109.097,431.732,110.573,431.59,110.595z"/>
			</g>
		</g>
		<g>
			<g>
				<path style="fill:#263238;" d="M445.816,97.78c-0.052,0.134-1.373-0.249-2.95-0.855c-1.578-0.606-2.815-1.207-2.763-1.341
					c0.052-0.134,1.372,0.248,2.95,0.855C444.631,97.045,445.868,97.645,445.816,97.78z"/>
			</g>
		</g>
	</g>
</g>
<g id="Character_00000054949217738369364030000017704033593143831179_">
	<g>
		<g>
			<g>
				<g>
					<g>
						<g>
							<g>
								<g>
									<g>
										<g>
											<g>
												<g>
													<g>
														<path style="fill:#263238;" d="M644.337,174.457c6.778-8.154,13.546-16.394,18.82-25.593
															c5.274-9.199,9.029-19.483,9.277-30.083c0.037-1.607-0.656-12.765-2.2-13.21c-1.104-0.319-1.862,9.53-2.767,10.238
															c-8.633,6.759-14.245,16.79-17.472,27.269C646.767,153.556,645.24,163.53,644.337,174.457"/>
													</g>
												</g>
											</g>
										</g>
									</g>
								</g>
							</g>
							<g>
								<g>
									<g>
										<g>
											<g>
												<path style="fill:#FFBF9D;" d="M556.153,236.481c2.7-6.986,15.985-41.96,15.932-41.981c0,0-22.91-11.925-15.046-36.202
													c3.8-11.727,13.589-35.24,22.695-56.415c9.787-22.759,35.416-34.176,58.888-26.25l2.332,0.787
													c24.657,9.963,29.97,36.469,19.329,60.841l-48.967,113.5L568.38,237.49L556.153,236.481z"/>
											</g>
										</g>
									</g>
								</g>
							</g>
							<g>
								<g>
									<g>
										<g>
											<g>
												<g>
													<g>
														<g>
															<g>
																<path style="fill:#FF9A6C;" d="M572.085,194.501c0,0,14.937,6.04,34.62,1.323c0,0-13.621,15.388-37.01,5.065
																	L572.085,194.501z"/>
															</g>
														</g>
													</g>
												</g>
											</g>
										</g>
									</g>
								</g>
							</g>
							<g>
								<g>
									<g>
										<g>
											<g>
												<g>
													<g>
														<g>
															<g>
																<g>
																	<g>
																		<g>
																			<g>
																				<g>
																					<g>
																						<path style="fill:#263238;" d="M579.727,125.23c-0.681,1.801,0.284,3.863,2.153,4.608
																							c1.865,0.743,3.93-0.11,4.61-1.911c0.68-1.801-0.283-3.864-2.148-4.608
																							C582.474,122.573,580.407,123.429,579.727,125.23z"/>
																					</g>
																				</g>
																			</g>
																		</g>
																	</g>
																</g>
															</g>
														</g>
													</g>
												</g>
											</g>
										</g>
									</g>
								</g>
							</g>
							<g>
								<g>
									<g>
										<g>
											<g>
												<g>
													<g>
														<g>
															<g>
																<g>
																	<g>
																		<g>
																			<g>
																				<g>
																					<g>
																						<g>
																							<path style="fill:#263238;" d="M581.513,113.663c0.276,0.595,3.545-0.458,7.257,0.806
																								c3.726,1.21,5.807,4.042,6.363,3.723c0.266-0.134,0.105-1.095-0.791-2.36
																								c-0.878-1.255-2.588-2.765-4.907-3.537c-2.319-0.768-4.552-0.574-5.966-0.08
																								C582.032,112.707,581.371,113.39,581.513,113.663z"/>
																						</g>
																					</g>
																				</g>
																			</g>
																		</g>
																	</g>
																</g>
															</g>
														</g>
													</g>
												</g>
											</g>
										</g>
									</g>
								</g>
							</g>
							<g>
								<g>
									<g>
										<g>
											<g>
												<g>
													<g>
														<g>
															<g>
																<g>
																	<g>
																		<g>
																			<g>
																				<g>
																					<g>
																						<path style="fill:#263238;" d="M612.32,138.335c-0.68,1.801,0.284,3.863,2.153,4.607
																							c1.864,0.743,3.929-0.109,4.61-1.911c0.68-1.801-0.284-3.864-2.149-4.608
																							C615.066,135.678,613,136.534,612.32,138.335z"/>
																					</g>
																				</g>
																			</g>
																		</g>
																	</g>
																</g>
															</g>
														</g>
													</g>
												</g>
											</g>
										</g>
									</g>
								</g>
							</g>
							<g>
								<g>
									<g>
										<g>
											<g>
												<g>
													<g>
														<g>
															<g>
																<g>
																	<g>
																		<g>
																			<g>
																				<g>
																					<g>
																						<g>
																							<path style="fill:#263238;" d="M617.397,127.455c0.276,0.595,3.549-0.455,7.258,0.808
																								c3.725,1.21,5.806,4.042,6.364,3.723c0.265-0.135,0.108-1.093-0.792-2.359
																								c-0.877-1.256-2.588-2.766-4.905-3.538c-2.318-0.768-4.553-0.574-5.966-0.08
																								C617.92,126.5,617.256,127.183,617.397,127.455z"/>
																						</g>
																					</g>
																				</g>
																			</g>
																		</g>
																	</g>
																</g>
															</g>
														</g>
													</g>
												</g>
											</g>
										</g>
									</g>
								</g>
							</g>
							<g>
								<g>
									<g>
										<g>
											<g>
												<g>
													<g>
														<g>
															<g>
																<g>
																	<g>
																		<g>
																			<g>
																				<g>
																					<g>
																						<path style="fill:#263238;" d="M594.43,151.502c0.089-0.205-2.086-1.384-5.666-3.126
																							c-0.916-0.418-1.751-0.91-1.692-1.611c0.008-0.76,0.75-1.65,1.583-2.599c1.668-1.995,3.413-4.085,5.245-6.276
																							c7.369-8.969,13.045-16.474,12.682-16.768c-0.364-0.294-6.632,6.738-14.001,15.708
																							c-1.794,2.22-3.507,4.335-5.142,6.36c-0.722,0.957-1.753,1.971-1.749,3.557
																							c0.016,0.795,0.539,1.545,1.091,1.914c0.545,0.391,1.076,0.582,1.536,0.768
																							C592.014,150.902,594.344,151.708,594.43,151.502z"/>
																					</g>
																				</g>
																			</g>
																		</g>
																	</g>
																</g>
															</g>
														</g>
													</g>
												</g>
											</g>
										</g>
									</g>
								</g>
							</g>
							<g>
								<g>
									<g>
										<g>
											<g>
												<g>
													<g>
														<g>
															<g>
																<g>
																	<g>
																		<g>
																			<g>
																				<g>
																					<g>
																						<path style="fill:#263238;" d="M604.496,157.764c-0.593-0.239-1.962,3.791-6.38,5.487
																							c-4.415,1.708-8.561-0.196-8.783,0.357c-0.141,0.234,0.693,1.106,2.491,1.769
																							c1.759,0.662,4.552,0.968,7.255-0.07c2.698-1.045,4.394-3.08,5.091-4.689
																							C604.892,158.985,604.78,157.834,604.496,157.764z"/>
																					</g>
																				</g>
																			</g>
																		</g>
																	</g>
																</g>
															</g>
														</g>
													</g>
												</g>
											</g>
										</g>
									</g>
								</g>
							</g>
							<g>
								<g>
									<g>
										<g>
											<g>
												<g>
													<g>
														<g>
															<g>
																<g>
																	<g>
																		<path style="fill:#263238;" d="M622.693,112.448c0.025,1.134,3.896,1.908,8.078,3.905
																			c4.221,1.913,7.305,4.376,8.19,3.666c0.404-0.346,0.112-1.504-0.979-2.962c-1.079-1.452-3.013-3.139-5.531-4.314
																			c-2.52-1.17-5.056-1.563-6.862-1.454C623.771,111.394,622.696,111.916,622.693,112.448z"/>
																	</g>
																</g>
															</g>
														</g>
													</g>
												</g>
											</g>
										</g>
									</g>
								</g>
							</g>
							<g>
								<g>
									<g>
										<g>
											<g>
												<g>
													<g>
														<g>
															<g>
																<g>
																	<g>
																		<path style="fill:#263238;" d="M587.219,101.831c0.369,1.065,3.224,1.053,6.315,2.051
																			c3.125,0.89,5.492,2.486,6.389,1.806c0.407-0.339,0.283-1.323-0.586-2.506c-0.853-1.175-2.511-2.459-4.647-3.109
																			c-2.137-0.647-4.228-0.501-5.591,0.002C587.72,100.575,587.07,101.323,587.219,101.831z"/>
																	</g>
																</g>
															</g>
														</g>
													</g>
												</g>
											</g>
										</g>
									</g>
								</g>
							</g>
							<g>
								<g>
									<g>
										<g>
											<g>
												<g>
													<g>
														<path style="fill:#FFBF9D;" d="M652.264,154.497c0.473-0.039,18.271,0.696,12.162,17.046
															c-6.11,16.35-21.264,6.844-21.117,6.364C643.455,177.428,652.264,154.497,652.264,154.497z"/>
													</g>
												</g>
											</g>
										</g>
									</g>
								</g>
							</g>
							<g>
								<g>
									<g>
										<g>
											<g>
												<g>
													<g>
														<g>
															<path style="fill:#FF9A6C;" d="M650.617,173.58c0.092-0.026,0.211,0.306,0.61,0.706
																c0.389,0.39,1.141,0.84,2.113,0.839c1.964,0.012,4.443-2.187,5.624-5.104c0.597-1.472,0.815-3.006,0.726-4.376
																c-0.052-1.382-0.513-2.507-1.326-2.987c-0.791-0.523-1.601-0.233-1.973,0.153c-0.39,0.375-0.408,0.74-0.505,0.736
																c-0.061,0.024-0.248-0.405,0.136-1.031c0.189-0.3,0.525-0.613,1.026-0.784c0.511-0.173,1.149-0.119,1.73,0.173
																c1.228,0.558,1.93,2.142,2.028,3.646c0.166,1.536-0.044,3.273-0.715,4.926c-1.336,3.256-4.174,5.708-6.793,5.508
																c-1.262-0.13-2.092-0.835-2.444-1.406C650.499,173.986,650.549,173.588,650.617,173.58z"/>
														</g>
													</g>
												</g>
											</g>
										</g>
									</g>
								</g>
							</g>
							<g>
								<g>
									<g>
										<g>
											<g>
												<g>
													<g>
														<path style="fill:#263238;" d="M600.636,78.935c-2.079-2.467,9.113-7.971,16.722-8.424
															c11.501-0.685,27.508,2.318,35.556,8.345c9.69,7.256,16.648,16.132,18.309,28.124
															c1.661,11.992-0.711,24.31-5.364,35.486c-1.419,3.41-3.156,6.866-6.116,9.074c-3.658,2.729-8.896,3.323-10.612,8.366
															c-0.627,1.843-1.849,3.478-3.601,4.325c-4.198,2.029-6.703-2.351-7.233-5.983c-1.132-7.757,1.393-15.53,3.884-22.963
															c1.771-5.283,3.597-10.673,6.978-15.102c1.839-2.41,4.105-4.485,5.808-6.994c1.703-2.508,2.82-5.668,1.967-8.578
															c-0.139-0.473-0.422-1.112-0.81-1.847c-3.062-5.815-9.058-9.505-15.628-9.679c-10.422-0.275-27.953-1.44-30.851-6.124
															c-4.169-6.74-4.456-10.202-4.456-10.202L600.636,78.935z"/>
													</g>
												</g>
											</g>
										</g>
									</g>
								</g>
							</g>
						</g>
					</g>
				</g>
			</g>
		</g>
		<g>
			<g>
				<g>
					<g>
						<path style="fill:#FF725E;" d="M655.031,68.882c1.048,0.532,25.62,15.713,25.457,37.85
							c-0.162,22.137-4.213,27.558-4.213,27.558s1.222,1.471,1.959,3.349c0.66,1.683-3.11,7.379-6.344,5.478
							c-22.061-20.468-52.462-32.223-87.143-42.961l-26.162-9.364c-7.651-1.676-9.562-4.517-5.824-5.296
							c2.866-0.597,26.626-1.798,26.626-1.798l5.131-1.58l16.026-11.312c0,0-0.62-2.554,2.633-3.385
							C606.431,66.59,634.339,58.381,655.031,68.882z"/>
					</g>
				</g>
			</g>
		</g>
		<g>
			<g>
				<g>
					<g>
						<g>
							<path style="fill:#263238;" d="M584.52,82.118c0,0,0.348,0.139,1.022,0.36c0.805,0.257,1.78,0.569,2.955,0.944
								c2.582,0.767,6.258,2.066,10.773,3.731c8.984,3.432,21.174,8.873,33.75,16.476c12.628,7.52,23.358,15.431,31.017,21.26
								c3.839,2.908,6.896,5.326,9.021,6.983c0.974,0.758,1.781,1.387,2.448,1.906c0.563,0.431,0.873,0.64,0.873,0.64
								s-0.271-0.258-0.815-0.713c-0.652-0.538-1.442-1.189-2.393-1.974c-2.09-1.7-5.117-4.158-8.933-7.102
								c-7.612-5.9-18.327-13.865-30.979-21.399c-12.601-7.618-24.845-13.026-33.874-16.385
								C590.323,83.535,584.52,82.118,584.52,82.118z"/>
						</g>
					</g>
				</g>
			</g>
		</g>
		<g style="opacity:0.3;">
			<g>
				<g>
					<g>
						<g>
							<path d="M675.338,88.949c0,0-27.116-14.516-42.097-12.756c0.583-0.079,1.167-0.159,1.75-0.238
								c-4.662,0.388-9.324,0.776-13.985,1.165c-2.362,0.197-5.075,0.267-6.7-1.458c0,0,8.492-3.598,21.9-3.529
								C649.614,72.201,669.289,77.012,675.338,88.949z"/>
						</g>
					</g>
				</g>
			</g>
		</g>
		<g>
			<g>
				<g>
					<g>
						<g>
							<path style="fill:#263238;" d="M675.703,89.243c0,0-0.61-0.992-1.993-2.57c-1.377-1.574-3.515-3.765-6.578-5.945
								c-3.037-2.2-6.998-4.378-11.697-5.992c-4.672-1.612-10.156-2.767-15.901-2.208c-2.864,0.242-5.607,0.806-8.242,1.357
								c-2.626,0.598-5.177,1.041-7.58,1.709c-2.385,0.669-4.617,1.408-6.787,1.616c-2.177,0.305-4.16-0.218-5.932-0.789
								c-7.09-2.329-10.921-5.278-10.448-5.616c0.005-0.018-0.02,0.332,0.372,0.751c0.384,0.4,1.018,0.931,1.916,1.475
								c1.786,1.101,4.502,2.489,8.058,3.704c1.754,0.594,3.848,1.158,6.074,0.861c2.224-0.198,4.491-0.935,6.862-1.587
								c2.367-0.646,4.939-1.085,7.56-1.676c2.631-0.544,5.359-1.102,8.187-1.34c5.667-0.551,11.074,0.573,15.722,2.15
								c4.666,1.578,8.608,3.706,11.645,5.855c3.063,2.127,5.221,4.266,6.633,5.796c0.706,0.768,1.231,1.386,1.573,1.817
								C675.499,89.035,675.703,89.243,675.703,89.243z"/>
						</g>
					</g>
				</g>
			</g>
		</g>
		<g style="opacity:0.3;">
			<g>
				<g>
					<g>
						<g>
							<path d="M680.139,115.878c-5.135-1.805-8.581-4.482-13.307-7.356c-5.036-3.062-10.107-5.859-14.991-9.158
								c-3.706-2.504-8.199-5.149-9.848-9.016c-1.12,2.002-1.146,4.156-0.096,6.195c1.049,2.039,5.507,5.57,7.404,6.86
								c10.81,7.348,18.322,12.369,30.404,17.482C680.035,119.571,680.139,115.878,680.139,115.878"/>
						</g>
					</g>
				</g>
			</g>
		</g>
		<g>
			<g>
				<g>
					<g>
						<path style="fill:#FF725E;" d="M680.404,104.277c2.775,2.535,4.448,4.176,3.588,6.986c-0.716,2.339-2.157,5.006-4.573,4.627
							c-0.737-0.115-1.4-0.499-2.044-0.876c-11.025-6.457-22.049-12.914-33.074-19.371c-1.118-0.655-2.32-1.407-2.746-2.631
							c-0.656-1.883,0.987-3.94,2.91-4.463c1.923-0.523,3.958,0.048,5.855,0.661C661.101,92.696,670.934,98.058,680.404,104.277"/>
					</g>
				</g>
			</g>
		</g>
		<g>
			<g>
				<g>
					<g>
						<g>
							<path style="fill:#263238;" d="M641.923,93.721c0.068-0.02-0.486-0.605-0.423-1.878c0.052-1.197,0.891-3.161,3-3.983
								c2.122-0.719,4.934-0.237,7.69,0.875c2.801,1.122,5.87,2.399,9.037,3.846c6.351,2.873,11.837,6.019,15.571,8.642
								c1.883,1.289,3.336,2.43,4.339,3.221c0.409,0.33,0.785,0.635,1.144,0.924c0.265,0.207,0.41,0.311,0.42,0.299
								c0.011-0.012-0.113-0.139-0.359-0.37c-0.342-0.312-0.701-0.639-1.09-0.993c-0.97-0.836-2.398-2.022-4.265-3.352
								c-3.703-2.704-9.196-5.914-15.568-8.796c-3.179-1.453-6.256-2.718-9.076-3.822c-2.814-1.103-5.705-1.59-7.964-0.782
								c-2.252,0.932-3.06,3.026-3.064,4.284c-0.011,0.658,0.16,1.152,0.309,1.458C641.799,93.59,641.914,93.728,641.923,93.721z"/>
						</g>
					</g>
				</g>
			</g>
		</g>
		<g>
			<g>
				<g>
					<g>
						<polygon style="fill:#FFFFFF;" points="595.516,74.356 618.033,81.569 613.98,87.22 589.848,78.357 						"/>
					</g>
				</g>
			</g>
		</g>
		<g>
			<g>
				<g>
					<g>
						<g>
							<path style="fill:#263238;" d="M622.516,105.809c0.058-0.115-9.421-4.962-21.168-10.824
								c-11.751-5.864-21.321-10.522-21.378-10.407c-0.058,0.115,9.419,4.961,21.17,10.825
								C612.887,101.265,622.459,105.925,622.516,105.809z"/>
						</g>
					</g>
				</g>
			</g>
		</g>
	</g>
	<g>
		<g>
			<g>
				<g>
					<g>
						<path style="fill:#FF725E;" d="M628.194,227.128l0.295-14.781l-50.58,18.789c0,0-9.348-30.364-9.348-31.798l-11.209,7.046
							l-18.63-8.01l-18.63-9.208l-37.683,65.955l-39.529,116.563l93.154,62.12l69.06-74.011l41.984-63.974l23.084-40.523
							L628.194,227.128z"/>
					</g>
				</g>
			</g>
		</g>
		<g>
			<g>
				<path style="fill:#263238;" d="M573.413,230.922c-0.03,0-0.056-0.517-0.078-1.478c-0.013-1.035-0.03-2.424-0.052-4.145
					l0.228,0.145c-3.87,1.877-9.69,5.259-15.231,10.43l-0.405,0.378l-0.031-0.553c-0.037-0.658-0.077-1.359-0.116-2.067
					c-0.406-7.25-0.744-13.814-0.963-18.567c-0.096-2.32-0.174-4.225-0.232-5.63c-0.015-0.617-0.027-1.123-0.037-1.532
					c-0.003-0.351,0.005-0.535,0.022-0.536c0.018-0.001,0.046,0.182,0.082,0.53c0.036,0.408,0.08,0.912,0.134,1.527
					c0.099,1.403,0.234,3.304,0.397,5.62c0.313,4.748,0.709,11.308,1.115,18.558c0.039,0.708,0.078,1.41,0.115,2.067l-0.436-0.176
					c5.598-5.207,11.51-8.554,15.447-10.338l0.234-0.106l-0.006,0.251c-0.04,1.721-0.072,3.11-0.096,4.144
					C573.475,230.406,573.443,230.922,573.413,230.922z"/>
			</g>
		</g>
		<g>
			<g>
				<path style="fill:#263238;" d="M623.53,227.839c0.007,0.016-0.191,0.124-0.576,0.313c-0.436,0.207-0.998,0.474-1.694,0.804
					c-1.539,0.704-3.666,1.678-6.268,2.869c-5.365,2.4-12.679,5.672-20.76,9.286c-3.462,1.529-6.782,2.995-9.864,4.356l-0.421,0.186
					l0.079-0.452c0.99-5.633,1.191-10.602,1.152-14.233l0.234,0.141c-1.958,0.952-3.529,1.715-4.669,2.269
					c-0.509,0.237-0.921,0.429-1.25,0.582c-0.286,0.128-0.437,0.187-0.444,0.174c-0.007-0.014,0.131-0.1,0.404-0.254
					c0.319-0.173,0.718-0.39,1.212-0.658c1.124-0.587,2.672-1.395,4.602-2.402l0.226-0.118l0.008,0.259
					c0.115,3.645-0.028,8.646-0.992,14.323l-0.341-0.266c3.078-1.37,6.394-2.845,9.852-4.384c8.105-3.561,15.441-6.783,20.822-9.147
					c2.631-1.129,4.78-2.051,6.335-2.718c0.712-0.294,1.287-0.531,1.733-0.715C623.309,227.897,623.522,227.822,623.53,227.839z"/>
			</g>
		</g>
	</g>
	<g>
		<g>
			<g>
				<g>
					<g>
						<g>
							<g>
								<g>
									<g>
										<g>
											<g>
												<path style="fill:#455A64;" d="M535.103,446.758H154.196c-8.045,0-14.567-6.522-14.567-14.567V168.451
													c0-8.045,6.522-14.567,14.567-14.567h380.906c8.045,0,14.567,6.522,14.567,14.567v263.741
													C549.67,440.236,543.148,446.758,535.103,446.758z"/>
											</g>
										</g>
									</g>
								</g>
							</g>
							<g>
								<g>
									<g>
										<g>
											<g>
												<path style="fill:#455A64;" d="M550.054,453.47H141.401c-9.829,0-17.798-7.968-17.798-17.798v-7.829h444.248v7.829
													C567.852,445.502,559.884,453.47,550.054,453.47z"/>
											</g>
										</g>
									</g>
								</g>
							</g>
							<g>
								<g>
									<g>
										<g>
											<g>
												<rect x="150.636" y="165.519" style="fill:#263238;" width="386.881" height="247.329"/>
											</g>
										</g>
									</g>
								</g>
							</g>
							<g>
								<g>
									<g>
										<g>
											<g>
												<polygon style="fill:#263238;" points="304.228,425.097 309.741,434.568 387.312,434.568 392.431,425.097 												
													"/>
											</g>
										</g>
									</g>
								</g>
							</g>
						</g>
						<g>
							<g>
								<g>
									<g>
										<g>
											<g>
												<g>
													<g>
														<g>
															<path style="fill:#EBEBEB;" d="M527.071,412.057H161.878c-1.808,0-3.273-1.466-3.273-3.273V177.165
																c0-1.807,1.465-3.273,3.273-3.273h365.194c1.807,0,3.273,1.465,3.273,3.273v231.619
																C530.344,410.591,528.879,412.057,527.071,412.057z"/>
														</g>
													</g>
												</g>
											</g>
										</g>
									</g>
									<g>
										<g>
											<g>
												<g>
													<g>
														<g>
															<polygon style="fill:#FAFAFA;" points="529.946,412.405 158.206,412.405 158.604,191.691 529.946,191.691 
																															"/>
														</g>
													</g>
												</g>
											</g>
										</g>
									</g>
									<g>
										<g>
											<g>
												<g>
													<g>
														<g>
															<path style="fill:#263238;" d="M189.838,183.09c0,1.771-1.371,3.207-3.061,3.207c-1.691,0-3.061-1.436-3.061-3.207
																c0-1.771,1.37-3.206,3.061-3.206C188.467,179.884,189.838,181.319,189.838,183.09z"/>
														</g>
													</g>
												</g>
											</g>
										</g>
									</g>
									<g>
										<g>
											<g>
												<g>
													<g>
														<g>
															<path style="fill:#263238;" d="M171.284,183.09c0,1.771-1.37,3.207-3.062,3.207c-1.69,0-3.061-1.436-3.061-3.207
																c0-1.771,1.371-3.206,3.061-3.206C169.914,179.884,171.284,181.319,171.284,183.09z"/>
														</g>
													</g>
												</g>
											</g>
										</g>
									</g>
									<g>
										<g>
											<g>
												<g>
													<g>
														<g>
															<path style="fill:#263238;" d="M180.82,183.09c0,1.771-1.37,3.207-3.061,3.207c-1.691,0-3.061-1.436-3.061-3.207
																c0-1.771,1.371-3.206,3.061-3.206C179.45,179.884,180.82,181.319,180.82,183.09z"/>
														</g>
													</g>
												</g>
											</g>
										</g>
									</g>
								</g>
							</g>
						</g>
						<g>
							<g>
								<g>
									<g>
										<g>
											<path style="fill:#263238;" d="M546.146,425.097c0,0.159-91.009,0.287-203.249,0.287
												c-112.279,0-203.269-0.128-203.269-0.287c0-0.158,90.99-0.287,203.269-0.287
												C455.137,424.81,546.146,424.939,546.146,425.097z"/>
										</g>
									</g>
								</g>
							</g>
						</g>
					</g>
				</g>
			</g>
		</g>
		<g>
			<g>
				<g>
					<g>
						<g>
							<path style="fill:#E0E0E0;" d="M304.543,234.031c6.115-3.696,12.625-6.498,19.34-8.405l3.984-19.144l32.344-0.567
								l4.654,18.99c6.778,1.67,13.384,4.242,19.625,7.721l16.347-10.715l23.272,22.471l-10.132,16.71
								c3.697,6.117,6.498,12.63,8.404,19.345l19.142,3.983l0.568,32.344l-18.991,4.656c-1.67,6.777-4.242,13.381-7.72,19.623
								l10.713,16.348l-22.467,23.273l-16.712-10.133c-6.116,3.696-12.628,6.497-19.343,8.404l-3.985,19.144l-32.343,0.568
								l-4.655-18.992c-6.777-1.671-13.382-4.242-19.624-7.72l-16.347,10.715l-23.273-22.47l10.133-16.71
								c-3.696-6.117-6.499-12.627-8.406-19.343l-19.143-3.984l-0.567-32.343l18.991-4.657c1.67-6.777,4.243-13.381,7.72-19.623
								L265.36,247.17l22.468-23.273L304.543,234.031L304.543,234.031z M321.784,277.118c-13.312,13.789-12.927,35.758,0.862,49.069
								c13.788,13.312,35.757,12.925,49.068-0.863c13.311-13.788,12.927-35.757-0.862-49.069
								C357.064,262.944,335.096,263.33,321.784,277.118z"/>
						</g>
					</g>
				</g>
			</g>
		</g>
		<g>
			<g>
				<g>
					<g>
						<g>
							<path style="fill:#E0E0E0;" d="M433.752,246.373c0.444-2.423,1.21-4.743,2.252-6.911l-4.028-5.404l7.247-8.474l5.963,3.14
								c1.98-1.367,4.154-2.483,6.478-3.299l0.972-6.667l11.117-0.868l1.995,6.434c2.423,0.445,4.744,1.21,6.912,2.254l5.403-4.028
								l8.475,7.247l-3.14,5.964c1.367,1.98,2.483,4.153,3.298,6.477l6.667,0.973l0.869,11.116l-6.434,1.995
								c-0.444,2.423-1.21,4.743-2.253,6.912l4.028,5.404l-7.247,8.474l-5.964-3.14c-1.98,1.367-4.153,2.483-6.478,3.298
								l-0.972,6.667l-11.117,0.868l-1.995-6.434c-2.423-0.445-4.743-1.21-6.912-2.253l-5.404,4.028l-8.474-7.247l3.14-5.964
								c-1.367-1.98-2.482-4.154-3.298-6.477l-6.667-0.972l-0.868-11.117L433.752,246.373L433.752,246.373z M448.817,249.744
								c-0.674,7.97,6.273,14.216,13.994,12.881c5.263-0.91,9.389-5.358,9.84-10.68c0.676-7.971-6.273-14.221-13.996-12.883
								C453.392,239.973,449.268,244.421,448.817,249.744z"/>
						</g>
					</g>
				</g>
			</g>
		</g>
		<g>
			<g>
				<g>
					<g>
						<g>
							<path style="fill:#E0E0E0;" d="M190.218,358.025c0.085-2.906,0.563-5.75,1.391-8.466l-5.667-5.584l6.939-11.184l7.52,2.596
								c2.066-1.949,4.402-3.641,6.968-5.008l-0.059-7.952l12.815-3.001l3.479,7.149c2.907,0.085,5.752,0.563,8.468,1.393
								l5.583-5.666l11.184,6.939l-2.596,7.52c1.949,2.065,3.639,4.401,5.007,6.967l7.952-0.058l3.003,12.814l-7.15,3.479
								c-0.085,2.906-0.563,5.751-1.392,8.467l5.667,5.584l-6.939,11.184l-7.52-2.597c-2.066,1.949-4.402,3.64-6.967,5.007
								l0.059,7.952l-12.815,3.002l-3.479-7.15c-2.907-0.085-5.751-0.563-8.468-1.392l-5.584,5.667l-11.184-6.939l2.596-7.52
								c-1.949-2.065-3.639-4.402-5.007-6.967l-7.952,0.058l-3.002-12.815L190.218,358.025L190.218,358.025z M208.753,361.632
								c1.779,7.593,9.375,12.306,16.968,10.527c7.592-1.779,12.305-9.375,10.526-16.968c-1.779-7.592-9.375-12.306-16.968-10.527
								C211.687,346.444,206.974,354.04,208.753,361.632z"/>
						</g>
					</g>
				</g>
			</g>
		</g>
		<g>
			<g>
				<g>
					<g>
						<g>
							<path style="fill:#EBEBEB;" d="M213.229,251.177c0.335-1.826,0.912-3.576,1.698-5.21l-3.037-4.074l5.464-6.389l4.496,2.367
								c1.493-1.031,3.132-1.872,4.884-2.487l0.733-5.026l8.381-0.654l1.504,4.85c1.827,0.335,3.577,0.913,5.211,1.699l4.074-3.037
								l6.389,5.463l-2.367,4.496c1.03,1.493,1.872,3.131,2.486,4.883l5.026,0.733l0.655,8.381l-4.851,1.504
								c-0.335,1.827-0.912,3.576-1.699,5.211l3.037,4.074l-5.463,6.389l-4.496-2.367c-1.493,1.03-3.131,1.872-4.883,2.487
								l-0.733,5.026l-8.381,0.655l-1.504-4.851c-1.827-0.335-3.576-0.912-5.211-1.698l-4.074,3.037l-6.389-5.463l2.367-4.496
								c-1.03-1.493-1.871-3.131-2.486-4.883l-5.026-0.733l-0.655-8.381L213.229,251.177L213.229,251.177z M224.581,255.249
								c0.388,4.966,4.727,8.676,9.693,8.288c4.965-0.388,8.676-4.728,8.288-9.693c-0.388-4.965-4.727-8.676-9.693-8.288
								C227.904,245.944,224.193,250.283,224.581,255.249z"/>
						</g>
					</g>
				</g>
			</g>
		</g>
		<g>
			<g>
				<g>
					<g>
						<g>
							<path style="fill:#EBEBEB;" d="M434.172,341.427c0.288-1.569,0.783-3.071,1.458-4.476l-2.609-3.499l4.693-5.488l3.862,2.033
								c1.282-0.885,2.69-1.608,4.195-2.136l0.63-4.317l7.199-0.562l1.292,4.166c1.569,0.288,3.072,0.784,4.476,1.459l3.499-2.609
								l5.488,4.693l-2.033,3.862c0.885,1.282,1.608,2.689,2.136,4.194l4.317,0.63l0.563,7.199l-4.167,1.292
								c-0.288,1.569-0.784,3.072-1.459,4.476l2.609,3.5l-4.693,5.488l-3.862-2.034c-1.282,0.885-2.69,1.608-4.195,2.136
								l-0.63,4.317l-7.199,0.562l-1.292-4.167c-1.569-0.288-3.072-0.783-4.476-1.459l-3.499,2.609l-5.488-4.693l2.033-3.862
								c-0.885-1.282-1.607-2.69-2.136-4.195l-4.317-0.63l-0.562-7.199L434.172,341.427L434.172,341.427z M443.923,344.924
								c0.333,4.265,4.061,7.453,8.326,7.12c4.265-0.333,7.453-4.061,7.119-8.326c-0.333-4.265-4.061-7.453-8.326-7.119
								C446.777,336.932,443.59,340.659,443.923,344.924z"/>
						</g>
					</g>
				</g>
			</g>
		</g>
		<g>
			<g>
				<path style="fill:#FF725E;" d="M345.728,352.276h-49.753c-12.849,0-20.879-13.909-14.455-25.036l24.877-43.088l24.877-43.087
					c6.424-11.127,22.485-11.127,28.91,0l24.877,43.087l24.877,43.088c6.424,11.127-1.606,25.036-14.455,25.036H345.728z"/>
			</g>
			<g>
				<g>
					<path style="fill:#263238;" d="M399.285,332.218c0,0,0.139,0.257,0.389,0.773c0.19,0.534,0.505,1.353,0.504,2.484
						c0.027,1.116-0.25,2.546-1.164,3.929c-0.464,0.678-1.075,1.344-1.874,1.867c-0.804,0.509-1.788,0.863-2.861,0.935
						c-8.478,0.091-20.721,0.076-35.862,0.113c-15.143,0.016-33.167,0.035-53.18,0.056c-2.502,0.002-5.035,0.003-7.597,0.005
						c-2.698,0.059-5.263-1.858-6.13-4.435c-0.458-1.275-0.557-2.689-0.252-4.028c0.087-0.331,0.195-0.658,0.303-0.983
						c0.146-0.309,0.285-0.63,0.439-0.929l0.959-1.755c1.282-2.345,2.577-4.713,3.883-7.102c5.227-9.554,10.638-19.447,16.18-29.578
						c5.547-10.133,10.963-20.027,16.194-29.582c2.616-4.777,5.187-9.469,7.704-14.064c0.642-1.147,1.228-2.295,1.906-3.424
						c0.685-1.141,1.646-2.126,2.799-2.779c2.294-1.338,5.188-1.431,7.524-0.337c1.166,0.543,2.209,1.355,2.973,2.375
						c0.752,1.046,1.272,2.144,1.871,3.208c1.169,2.14,2.322,4.251,3.458,6.332c2.272,4.161,4.478,8.202,6.611,12.108
						c4.263,7.813,8.234,15.092,11.859,21.737c7.233,13.289,13.086,24.045,17.14,31.493c2.009,3.715,3.57,6.602,4.637,8.575
						c0.52,0.974,0.919,1.72,1.194,2.236C399.16,331.953,399.285,332.218,399.285,332.218s-0.156-0.248-0.438-0.745
						c-0.286-0.511-0.7-1.248-1.24-2.211c-1.087-1.962-2.676-4.833-4.722-8.528c-4.088-7.429-9.991-18.158-17.285-31.413
						c-3.643-6.636-7.632-13.905-11.915-21.707c-2.14-3.902-4.354-7.938-6.634-12.096c-1.14-2.079-2.296-4.188-3.468-6.326
						c-0.596-1.058-1.142-2.186-1.837-3.145c-0.721-0.961-1.702-1.72-2.798-2.229c-2.196-1.026-4.926-0.934-7.075,0.324
						c-1.082,0.613-1.981,1.538-2.625,2.613c-0.655,1.091-1.256,2.268-1.891,3.407c-2.513,4.597-5.08,9.292-7.693,14.071
						c-5.228,9.557-10.641,19.452-16.185,29.587c-5.546,10.13-10.96,20.02-16.189,29.573c-1.308,2.388-2.604,4.755-3.888,7.099
						c-0.614,1.193-1.396,2.293-1.656,3.539c-0.284,1.243-0.193,2.557,0.232,3.745c0.812,2.405,3.17,4.165,5.662,4.116
						c2.562,0.002,5.095,0.003,7.597,0.005c20.013,0.021,38.037,0.04,53.18,0.056c15.126,0.023,27.37,0.041,35.849,0.053
						c1.039-0.062,1.993-0.396,2.779-0.883c0.781-0.501,1.382-1.145,1.842-1.803c0.906-1.343,1.197-2.743,1.187-3.842
						C400.033,333.234,399.189,332.236,399.285,332.218z"/>
				</g>
			</g>
			<g>
				<path style="fill:#FFFFFF;" d="M337.675,323.009c0-4.412,3.515-7.702,8.525-7.702c5.01,0,8.45,3.29,8.45,7.702
					c0,4.338-3.44,7.853-8.45,7.853C341.19,330.862,337.675,327.347,337.675,323.009z M337.75,277.84h16.901l-2.842,33.279h-11.292
					L337.75,277.84z"/>
			</g>
			<g>
				<g>
					<path style="fill:#FFFFFF;" d="M348.112,236.116c-0.038,0.105-1.164-0.559-3.167-0.652c-1.972-0.116-4.808,0.533-7.211,2.411
						c-2.4,1.893-3.861,4.34-4.768,6.121c-0.907,1.801-1.333,2.987-1.414,2.957c-0.032-0.011,0.037-0.32,0.209-0.863
						c0.171-0.544,0.454-1.32,0.874-2.253c0.833-1.844,2.279-4.399,4.779-6.372c2.515-1.967,5.507-2.586,7.556-2.368
						c1.032,0.098,1.843,0.342,2.367,0.579C347.863,235.909,348.126,236.09,348.112,236.116z"/>
				</g>
			</g>
			<g>
				<g>
					<path style="fill:#FFFFFF;" d="M327.309,254.399c-0.124-0.073,0.366-1.131,1.095-2.362c0.729-1.232,1.419-2.171,1.543-2.097
						c0.124,0.073-0.366,1.131-1.095,2.362C328.124,253.533,327.433,254.472,327.309,254.399z"/>
				</g>
			</g>
			<g style="opacity:0.3;">
				<g>
					<polygon style="fill:#FFFFFF;" points="370.686,259.257 293.203,307.003 283.139,324.435 376.157,268.732 					"/>
				</g>
			</g>
			<g style="opacity:0.3;">
				<g>
					<path style="fill:#FFFFFF;" d="M382.887,280.415l-102.705,60.584c0.294,1.375,1.216,3.149,2.231,4.317l102.29-61.755
						L382.887,280.415z"/>
				</g>
			</g>
		</g>
	</g>
	<g>
		<g>
			<g>
				<g>
					<g>
						<path style="fill:#E0E0E0;" d="M636.716,393.395c-8.227-9.067-20.698-11.98-31.644-8.473l-9.573-10.503l-1.333-1.491
							l-75.728-83.087c4.551-10.555,2.862-23.249-5.365-32.316c-6.997-7.711-17.064-10.975-26.652-9.623l-3.699,1.47l12.881,8.651
							l-0.682,14.045l-10.414,9.449l-14.045-0.683l-9.182-10.12l-3.795,1.483c-1.087,8.477,4.596,19.151,10.788,25.976
							c8.214,9.054,20.66,11.971,31.595,8.489l76.996,84.479l2.368,2.626l7.297,8.007c-4.526,10.545-2.829,23.215,5.385,32.269
							c6.168,6.798,14.348,11.337,22.857,11.106l3.795-1.483l-9.182-10.121l0.683-14.045l10.414-9.449l14.045,0.683l5.387,11.604
							l3.795-1.483C645.985,411.443,643.712,401.107,636.716,393.395z"/>
					</g>
				</g>
				<g style="opacity:0.3;">
					<g>
						<path d="M636.716,393.395c-8.227-9.067-20.698-11.98-31.644-8.473l-9.573-10.503l-1.333-1.491l-75.728-83.087
							c4.551-10.555,2.862-23.249-5.365-32.316c-6.997-7.711-17.064-10.975-26.652-9.623l-3.699,1.47l12.881,8.651l-0.682,14.045
							l-10.414,9.449l-14.045-0.683l-9.182-10.12l-3.795,1.483c-1.087,8.477,4.596,19.151,10.788,25.976
							c8.214,9.054,20.66,11.971,31.595,8.489l76.996,84.479l2.368,2.626l7.297,8.007c-4.526,10.545-2.829,23.215,5.385,32.269
							c6.168,6.798,14.348,11.337,22.857,11.106l3.795-1.483l-9.182-10.121l0.683-14.045l10.414-9.449l14.045,0.683l5.387,11.604
							l3.795-1.483C645.985,411.443,643.712,401.107,636.716,393.395z"/>
					</g>
				</g>
				<g>
					<g>
						<path style="fill:#E0E0E0;" d="M632.92,394.879c-8.227-9.067-20.697-11.98-31.644-8.473l-9.573-10.503l-1.333-1.491
							l-75.728-83.087c4.551-10.555,2.862-23.249-5.365-32.316c-6.997-7.711-17.064-10.975-26.652-9.623l9.182,10.12l-0.682,14.045
							l-10.414,9.449l-14.045-0.683l-9.182-10.121c-2.276,9.411-0.003,19.748,6.993,27.459c8.215,9.054,20.66,11.971,31.595,8.489
							l76.996,84.479l2.368,2.626l7.297,8.007c-4.526,10.545-2.829,23.215,5.385,32.269c6.997,7.711,17.064,10.975,26.652,9.623
							l-9.182-10.12l0.682-14.045l10.414-9.449l14.045,0.683l9.182,10.12C642.19,412.926,639.917,402.59,632.92,394.879z"/>
					</g>
					<g>
						<g>
							<path style="fill:#263238;" d="M632.92,394.879c0,0,0.436,0.483,1.27,1.448c0.77,1.013,1.956,2.512,3.13,4.722
								c1.179,2.199,2.341,5.108,3.039,8.714c0.633,3.602,0.778,7.932-0.341,12.601l-0.047,0.198l-0.137-0.151
								c-2.723-2.992-5.827-6.402-9.198-10.106l0.089,0.042c-4.332-0.205-9.043-0.428-14.046-0.665l0.106-0.038
								c-3.251,2.956-6.744,6.132-10.404,9.46l0.053-0.112c-0.208,4.363-0.434,9.113-0.669,14.045l-0.045-0.126
								c2.843,3.129,5.969,6.567,9.191,10.113l0.237,0.26l-0.349,0.05c-4.751,0.679-9.835,0.232-14.638-1.507
								c-4.8-1.724-9.298-4.758-12.786-8.865c-3.515-4.073-6.016-9.233-6.908-14.821c-0.917-5.573-0.267-11.546,2.062-16.972
								l0.04,0.24c-25.678-28.167-55.18-60.529-86.686-95.089l0.27,0.072c-5.301,1.692-11.247,1.932-16.903,0.474
								c-5.659-1.431-10.966-4.611-14.972-9.046c-3.369-3.712-5.788-8.242-6.985-13.052c-1.209-4.808-1.212-9.877-0.058-14.632
								l0.115-0.476l0.329,0.362c3.082,3.397,6.142,6.771,9.181,10.121l-0.178-0.084c4.717,0.23,9.399,0.458,14.045,0.684
								l-0.185,0.066c3.506-3.18,6.976-6.327,10.415-9.447l-0.083,0.176c0.231-4.734,0.459-9.412,0.685-14.044l0.065,0.181
								c-3.095-3.413-6.153-6.785-9.18-10.123l-0.317-0.349l0.466-0.063c5.652-0.766,11.443,0.014,16.521,2.269
								c5.087,2.231,9.462,5.838,12.571,10.236c3.129,4.383,5.049,9.528,5.514,14.728c0.491,5.198-0.371,10.408-2.349,15.041
								l-0.04-0.241c37.53,41.261,67.737,74.471,86.551,95.155l-0.12-0.032c5.418-1.722,10.569-1.665,14.798-0.917
								c4.237,0.841,7.613,2.325,10.101,3.849c2.513,1.508,4.136,3.044,5.238,4.03C632.409,394.326,632.92,394.879,632.92,394.879
								s-0.542-0.525-1.584-1.577c-1.113-0.97-2.745-2.486-5.257-3.971c-2.488-1.502-5.855-2.96-10.071-3.778
								c-4.208-0.725-9.324-0.763-14.696,0.963l-0.07,0.023l-0.05-0.055c-18.849-20.652-49.113-53.81-86.714-95.006l-0.097-0.107
								l0.057-0.134c1.944-4.566,2.789-9.7,2.301-14.818c-0.463-5.12-2.357-10.183-5.44-14.495
								c-3.065-4.329-7.374-7.875-12.379-10.067c-4.998-2.216-10.697-2.98-16.257-2.224l0.149-0.412
								c3.028,3.336,6.087,6.706,9.185,10.118l0.07,0.077l-0.005,0.104c-0.224,4.633-0.451,9.31-0.68,14.045l-0.005,0.105
								l-0.078,0.071c-3.439,3.121-6.908,6.27-10.412,9.45l-0.079,0.071l-0.106-0.005c-4.645-0.225-9.328-0.452-14.045-0.681
								l-0.107-0.005l-0.072-0.079c-3.04-3.35-6.101-6.723-9.183-10.119l0.444-0.113c-1.134,4.674-1.129,9.658,0.059,14.383
								c1.177,4.728,3.553,9.179,6.866,12.829c3.939,4.361,9.153,7.485,14.716,8.892c5.559,1.434,11.406,1.198,16.616-0.464
								l0.158-0.051l0.112,0.123c31.488,34.577,60.973,66.954,86.636,95.135l0.098,0.107l-0.057,0.133
								c-2.299,5.344-2.946,11.23-2.048,16.725c0.874,5.51,3.332,10.6,6.796,14.621c3.437,4.057,7.869,7.054,12.605,8.763
								c4.738,1.723,9.758,2.172,14.452,1.509l-0.112,0.31c-3.216-3.551-6.336-6.995-9.174-10.128l-0.049-0.054l0.004-0.072
								c0.244-4.932,0.48-9.682,0.696-14.044l0.003-0.067l0.05-0.045c3.667-3.32,7.167-6.489,10.424-9.437l0.045-0.041l0.061,0.003
								c5.002,0.249,9.712,0.484,14.044,0.701l0.054,0.003l0.036,0.04c3.359,3.714,6.452,7.134,9.167,10.135l-0.184,0.047
								c1.127-4.632,1-8.936,0.388-12.521c-0.677-3.589-1.817-6.491-2.975-8.69c-1.154-2.211-2.322-3.717-3.076-4.739
								C633.328,395.387,632.92,394.879,632.92,394.879z"/>
						</g>
					</g>
				</g>
				<g>
					<g>
						<g>
							<path style="fill:#263238;" d="M511.188,296.171c0.031,0.017-0.087,0.281-0.329,0.746c-0.235,0.468-0.631,1.116-1.165,1.886
								c-1.063,1.542-2.786,3.52-5.06,5.274c-2.281,1.748-4.636,2.904-6.399,3.535c-0.882,0.318-1.609,0.533-2.122,0.641
								c-0.511,0.114-0.796,0.161-0.805,0.126c-0.023-0.085,1.089-0.393,2.794-1.106c1.705-0.708,3.982-1.891,6.218-3.604
								c2.23-1.72,3.958-3.616,5.081-5.082C510.528,297.122,511.112,296.127,511.188,296.171z"/>
						</g>
					</g>
				</g>
			</g>
			<g>
				<g>
					<g>
						<g>
							<g>
								<g>
									<g>
										<g>
											<path style="fill:#FFBF9D;" d="M595.757,332.258l-28.808-13.402l-25.713-3.206l9.444,7.953
												c0,0-33.238,11.584-33.821,14.196c-0.583,2.612,2.626,9.628,8.48,8.333c0,0-3.293,3.963-1.922,8.404
												c1.371,4.44,4.399,5.243,9.987,4.212c0,0-3.802,5.691-0.821,8.592c2.981,2.902,7.617,2.165,7.617,2.165
												s0.056,6.932,3.718,7.538c3.662,0.607,13.863-0.112,17.67-1.287c3.807-1.176,19.349-5.975,19.349-5.975l12.611-2.767
												L595.757,332.258z"/>
										</g>
									</g>
								</g>
							</g>
						</g>
						<g>
							<g>
								<g>
									<g>
										<g>
											<g>
												<path style="fill:#FF9A6C;" d="M542.816,341.056c0.111,0.381-3.713,1.827-8.541,3.229
													c-4.829,1.403-8.832,2.231-8.942,1.85c-0.111-0.381,3.713-1.826,8.542-3.229
													C538.702,341.503,542.706,340.675,542.816,341.056z"/>
											</g>
										</g>
									</g>
								</g>
							</g>
						</g>
						<g>
							<g>
								<g>
									<g>
										<g>
											<g>
												<path style="fill:#FF9A6C;" d="M547.709,354.735c0.115,0.38-2.924,1.63-6.784,2.793c-3.863,1.162-7.086,1.797-7.2,1.417
													c-0.114-0.379,2.923-1.63,6.786-2.792C544.372,354.989,547.595,354.355,547.709,354.735z"/>
											</g>
										</g>
									</g>
								</g>
							</g>
						</g>
						<g>
							<g>
								<g>
									<g>
										<g>
											<g>
												<path style="fill:#FF9A6C;" d="M552.099,366.1c0.067,0.427-2.692,1.011-5.934,1.824
													c-3.224,0.847-5.764,1.957-5.964,1.581c-0.187-0.313,2.147-2.056,5.597-2.969
													C549.231,365.679,552.047,365.746,552.099,366.1z"/>
											</g>
										</g>
									</g>
								</g>
							</g>
						</g>
						<g>
							<g>
								<g>
									<g>
										<g>
											<g>
												<path style="fill:#FF9A6C;" d="M555.732,322.5c0.107,0.389-3.667,1.758-8.33,3.367
													c-4.667,1.602-8.484,2.844-8.638,2.472c-0.151-0.359,3.456-2.211,8.171-3.83
													C551.647,322.884,555.63,322.124,555.732,322.5z"/>
											</g>
										</g>
									</g>
								</g>
							</g>
						</g>
					</g>
				</g>
			</g>
			<g>
				<polygon style="fill:#FFBF9D;" points="590.342,329.739 652.629,352.297 648.989,395.05 580.415,367.403 				"/>
			</g>
		</g>
		<g>
			<path style="fill:#FF725E;" d="M670.26,254.927c0,0,8.123,8.394,12.849,23.484c4.694,14.984,27.031,79.055,26.462,99.413
				c-0.588,21.048-14.758,36.068-45.9,27.75c-18.583-4.963-40.717-12.988-40.717-12.988l15.734-51.733l12.309,3.103l-19.877-37.313
				L670.26,254.927z"/>
		</g>
		<g>
			<g>
				<path style="fill:#263238;" d="M656.01,279.382c0.117,0.084-8.497,12.356-19.236,27.407
					c-10.744,15.057-19.545,27.191-19.662,27.108c-0.117-0.084,8.495-12.353,19.238-27.41
					C647.09,291.435,655.893,279.298,656.01,279.382z"/>
			</g>
		</g>
		<g>
			<g>
				<path style="fill:#263238;" d="M679.839,351.034c-0.023,0.037-0.537-0.264-1.511-0.71c-0.971-0.451-2.422-1.003-4.27-1.51
					c-1.846-0.511-4.087-0.988-6.574-1.529c-2.494-0.551-5.221-1.154-8.084-1.787c-5.733-1.282-10.916-2.471-14.662-3.357
					c-1.804-0.438-3.297-0.801-4.43-1.076c-1.043-0.265-1.616-0.429-1.608-0.464c0.008-0.035,0.597,0.061,1.654,0.266
					c1.142,0.234,2.647,0.542,4.467,0.914c3.767,0.794,8.963,1.927,14.697,3.209c2.859,0.647,5.583,1.263,8.074,1.827
					c2.479,0.566,4.716,1.081,6.568,1.643c1.852,0.557,3.303,1.17,4.257,1.682c0.48,0.25,0.839,0.469,1.075,0.628
					C679.73,350.928,679.849,351.019,679.839,351.034z"/>
			</g>
		</g>
		<g style="opacity:0.3;">
			<g>
				<path d="M695.763,353.285c-0.247-2.471-2.097-4.557-4.286-5.73c-2.189-1.173-4.697-1.582-7.157-1.919
					c-11.194-1.536-22.508-1.962-33.799-2.385l1.044,0.453c13.937,2.573,27.612,6.557,40.75,11.873
					c0.756,0.306,1.615,0.616,2.359,0.284C695.584,355.454,695.862,354.277,695.763,353.285z"/>
			</g>
		</g>
	</g>
	<g>
		<g>
			<g style="opacity:0.3;">
				<g>
					<path d="M439.135,154.916c-10.497-1.785-23.054,1.261-33.551-0.524c-1.569-0.267-3.285-0.509-4.664,0.285
						c-1.657,0.954-2.23,3.069-2.311,4.979c-0.225,5.285,2.22,10.5,6.035,14.163c3.815,3.663,8.892,5.852,14.107,6.737
						c4.191,0.712,8.694,0.575,12.432-1.449C437.707,175.573,440.864,162.132,439.135,154.916z"/>
				</g>
			</g>
			<g>
				<g>
					<g>
						<path style="fill:#FFBF9D;" d="M398.391,174.126c0,0-6.371-7.462-7.294-10.908c-0.612-2.283-0.305-8.668-0.028-12.717
							c0.19-2.775,1.913-5.31,4.547-6.203c0.918-0.311,1.788-0.351,2.376,0.192c0,0,0.403-0.698,2.903-3.257
							c2.5-2.559,3.687-4.294,9.189-2.702c0,0,4.047-4.273,6.375-3.954c2.328,0.32,4.635,0.999,4.635,0.999s8.87-0.374,10.688,2.443
							c0.796,1.232,2.435,2.093,4.028,2.671c2.801,1.017,5.103,3.057,6.327,5.774c1.666,3.697,1.771,7.73,1.771,7.73l-9.026,0.358
							c0,0,0.638,20.706-1.629,22.376c-2.266,1.671-3.134,1.077-3.134,1.077s-1.729,4.859-8.477,1.263c0,0-5.603,1.689-7.993-0.62
							c-2.39-2.309-11.178-24.501-11.178-24.501l0.245,11.029c0,0,4.63,7.137,2.363,8.808
							C402.814,175.654,398.391,174.126,398.391,174.126z"/>
					</g>
				</g>
			</g>
		</g>
		<g>
			<g>
				<path style="fill:#FF9A6C;" d="M409.63,146.058c0.034-0.011,0.216,0.453,0.514,1.3c0.32,0.946,0.729,2.156,1.218,3.605
					c1.007,3.05,2.364,7.275,3.832,11.951c1.481,4.674,2.674,8.953,4.06,11.835c0.67,1.449,1.344,2.555,1.836,3.3
					c0.49,0.748,0.802,1.135,0.766,1.165c-0.014,0.012-0.105-0.074-0.266-0.249c-0.164-0.173-0.393-0.438-0.665-0.799
					c-0.548-0.717-1.281-1.809-2.002-3.257c-1.492-2.886-2.747-7.175-4.226-11.839c-1.468-4.676-2.769-8.918-3.686-11.997
					c-0.426-1.468-0.782-2.695-1.06-3.654C409.711,146.553,409.595,146.069,409.63,146.058z"/>
			</g>
		</g>
		<g>
			<g>
				<path style="fill:#FF9A6C;" d="M420.703,143.503c0.035-0.009,0.197,0.469,0.459,1.341c0.279,0.971,0.636,2.215,1.065,3.705
					c0.877,3.134,2.053,7.473,3.322,12.272c1.269,4.801,2.389,9.155,3.175,12.313c0.364,1.508,0.668,2.766,0.905,3.747
					c0.202,0.888,0.298,1.383,0.263,1.393c-0.035,0.01-0.196-0.468-0.459-1.339c-0.279-0.97-0.636-2.214-1.064-3.704
					c-0.877-3.134-2.054-7.474-3.323-12.277c-1.269-4.801-2.389-9.156-3.175-12.314c-0.364-1.507-0.668-2.766-0.904-3.747
					C420.764,144.007,420.668,143.512,420.703,143.503z"/>
			</g>
		</g>
	</g>
</g>
</svg>
